<?xml version="1.0" standalone="no"?><!DOCTYPE svg PUBLIC "-//W3C//DTD SVG 1.1//EN" "http://www.w3.org/Graphics/SVG/1.1/DTD/svg11.dtd"><svg class="icon" width="200px" height="200.00px" viewBox="0 0 1024 1024" version="1.1" xmlns="http://www.w3.org/2000/svg"><path d="M219.452051 324.286123h554.714903v12.716998c0 138.038976 0.025 276.077951-0.012 414.116927-0.015 46.670992-24.905996 71.339987-71.779987 71.359987-11.659998 0.003-23.315996 0-34.176994 0 0 49.447991 0.537 97.503983-0.197 145.537975-0.455 29.787995-26.201995 54.51599-55.709991 55.59599-31.698994 1.164-60.635989-20.803996-61.759989-51.235991-1.814-49.203991-0.487-98.519983-0.487-148.841974H443.702012c0 19.544997 0.036 39.109993-0.008 58.67299-0.066 28.819995 0.553 57.66599-0.494 86.447985-1.024 28.175995-23.175996 51.211991-50.496991 54.66299-28.986995 3.663999-56.10399-13.125998-64.711989-40.556993-1.902-6.060999-3.019999-12.625998-3.059999-18.967996-0.27-40.953993-0.202-81.912986-0.076-122.866979 0.017-5.616999 0.96-11.234998 1.62-18.449997-13.789998 0-27.316995 0.082-40.844993-0.016-40.041993-0.29-66.099988-26.244995-66.132989-66.414988-0.11-140.311975-0.044-280.625951-0.045-420.939926v-10.819998z m554.957903-40.941993H218.907052c5.160999-96.023983 59.71799-155.720973 140.813975-198.109965-8.263999-12.522998-16.286997-24.711996-24.343996-36.879993-5.855999-8.845998-11.794998-17.636997-17.624997-26.499996-4.109999-6.247999-10.697998-13.294998-1.563-19.531996 9.863998-6.733999 13.892998 2.686 18.244997 9.114998 10.409998 15.371997 20.680996 30.840995 30.984995 46.285992 12.689998 19.027997 12.677998 19.021997 34.489994 12.663998 69.374988-20.219996 138.289976-19.074997 206.727963 4.451999 2.451 0.845 4.959999 1.524 8.169999 2.499999 14.185998-21.243996 28.248995-42.308993 42.314992-63.369988 1.683-2.523 3.328999-5.066999 5.068-7.551999 3.959999-5.665999 8.991998-8.718998 15.322997-4.047999 5.729999 4.224999 4.755999 9.619998 1.139 15.023997-12.224998 18.261997-24.367996 36.577994-36.530994 54.87699-2.716 4.086999-5.386999 8.202999-8.493998 12.941998 80.650986 42.005993 135.695976 101.820982 140.782975 198.131965zM645.269977 175.332149c0.166-16.063997-13.281998-29.731995-29.434995-29.910995-16.303997-0.183-29.586995 12.944998-29.719995 29.366995-0.128 16.616997 12.601998 29.545995 29.194995 29.649995 16.526997 0.102 29.789995-12.783998 29.959995-29.105995z m-238.123959-0.711c-0.212-16.401997-13.602998-29.512995-29.835994-29.206995-16.117997 0.302-29.559995 14.109998-29.275995 30.079995 0.288 16.285997 13.659998 29.136995 30.132995 28.960995 16.561997-0.178 29.195995-13.181998 28.979994-29.833995z m525.298908 335.669941c-0.002 41.289993 0.106 82.582985-0.034 123.874979-0.126 36.345994-25.112996 62.589989-59.241989 62.567989-34.102994-0.021-59.30199-26.441995-59.33599-62.561989-0.078-83.721985-0.171-167.443971 0.068-251.163956 0.087-30.823995 22.669996-55.56299 52.467991-58.66399 31.012995-3.224999 58.18899 16.012997 64.758988 46.273992 1.268 5.842999 1.251 12.033998 1.266 18.068997 0.102 40.532993 0.053 81.067986 0.05 121.603978z m-753.164868 0.002c0 43.189992 0.41 86.380985-0.151999 129.559978-0.344 26.474995-18.983997 48.775991-44.351993 55.25199-24.803996 6.326999-52.006991-3.959999-64.701988-26.507996-5.174999-9.189998-8.923998-20.587996-9.010999-31.017994-0.711-84.857985-0.626-169.72097-0.288-254.580955 0.135-33.445994 26.529995-59.10399 59.36199-59.10399 32.969994 0.002 58.74699 25.270996 59.121989 59.10999 0.471 42.424993 0.114 84.860985 0.114 127.289977l-0.093-0.001z" fill="#83D160" /></svg>