<?xml version="1.0" standalone="no"?><!DOCTYPE svg PUBLIC "-//W3C//DTD SVG 1.1//EN" "http://www.w3.org/Graphics/SVG/1.1/DTD/svg11.dtd"><svg t="1603264468535" class="icon" viewBox="0 0 1024 1024" version="1.1" xmlns="http://www.w3.org/2000/svg" p-id="3085" xmlns:xlink="http://www.w3.org/1999/xlink" width="16" height="16"><defs><style type="text/css"></style></defs><path d="M857.245 857.243c-190.672 190.676-499.818 190.676-690.49 0-190.672-190.672-190.672-499.815 0-690.49 190.672-190.669 499.818-190.672 690.49 0C1047.917 357.429 1047.917 666.571 857.245 857.243zM807.925 216.073c-163.435-163.431-428.415-163.431-591.85 0-163.435 163.435-163.435 428.415 0 591.85s428.415 163.435 591.846-0.003C971.36 644.488 971.36 379.508 807.925 216.073zM684.624 733.939 512 561.318 339.379 733.939l-49.32-49.32L462.68 511.998 290.056 339.374l49.324-49.32L512 462.678l172.624-172.624 49.32 49.324L561.324 511.998l172.621 172.621L684.624 733.939z" p-id="3086" fill="#ffffff"></path></svg>