<?xml version="1.0" standalone="no"?><!DOCTYPE svg PUBLIC "-//W3C//DTD SVG 1.1//EN" "http://www.w3.org/Graphics/SVG/1.1/DTD/svg11.dtd"><svg class="icon" width="64px" height="64.00px" viewBox="0 0 1024 1024" version="1.1" xmlns="http://www.w3.org/2000/svg"><path d="M1021.70792 507.947081c0 68.831989-6.189999 137.229979-30.949995 197.024969-25.687996 61.89899-73.040989 112.160982-119.836981 158.894975A496.925922 496.925922 0 0 1 706.57997 970.333008C646.783979 995.093005 583.894989 1024 515.063 1024s-134.444979-22.159997-194.30197-46.980993c-61.89899-25.688996-114.141982-67.09999-160.936975-113.832982A500.392922 500.392922 0 0 1 48.405072 701.13405C23.707076 641.27706 2.29008 576.77907 2.29008 507.947081a515.619919 515.619919 0 0 1 38.872994-196.15897C66.91307 249.890121 111.170063 197.770129 157.905055 150.850136S258.24304 63.88215 320.26603 38.194154A507.077921 507.077921 0 0 1 514.816 0.00216c68.830989 0 132.524979 18.569997 192.31997 43.639993 61.89999 25.686996 124.664981 53.912992 171.398973 100.646984s72.173989 110.489983 97.861984 172.450974c24.821996 59.856991 45.309993 122.745981 45.309993 191.20697z" fill="#FFD635" /><path d="M624.190982 957.89201c-64.86999 0-126.83098-20.921997-183.220971-44.319993-58.494991-24.264996-107.704983-63.26099-151.776976-107.394983a471.919926 471.919926 0 0 1-104.794984-152.829976c-23.397996-56.389991-43.329993-117.235982-43.329993-182.167972a486.774924 486.774924 0 0 1 36.396994-185.016971c24.263996-58.494991 66.23199-107.518983 110.118983-151.590976S382.22702 52.430152 440.660011 28.166156A469.133927 469.133927 0 0 1 534.127997 0.56016c-6.375999-0.557-12.812998-0.557-19.312997-0.557a507.077921 507.077921 0 0 0-194.54897 38.191994c-61.89899 25.749996-115.626982 66.10799-162.360975 112.841982S66.91307 250.075121 41.163074 311.974111A515.619919 515.619919 0 0 0 2.29008 507.947081c0 68.831989 21.416997 133.329979 46.238992 193.186969a499.773922 499.773922 0 0 0 111.417983 162.051975c46.733993 46.733993 99.039985 88.143986 160.937975 113.832982 59.856991 24.759996 125.53198 46.980993 194.30197 46.980993s131.720979-28.844995 191.51597-53.666992a517.847919 517.847919 0 0 0 134.568979-79.539987c-11.760998 5.818999-23.769996 11.389998-36.087995 16.526997-56.760991 23.335996-115.812982 50.571992-180.992972 50.571992z" fill="#F7B523" /><path d="M433.294012 132.157139s3.651999-2.847 10.274999-7.303999a240.168962 240.168962 0 0 1 28.659995-16.650997 235.711963 235.711963 0 0 1 44.319993-16.836997 217.513966 217.513966 0 0 1 55.213992-7.674999h14.049997c4.395999 0 9.409999 0.31 13.927998 0.619s9.099999 0.99 13.555998 1.61 8.789999 1.547 13.059998 2.474999a168.612974 168.612974 0 0 1 24.079996 7.489999 140.139978 140.139978 0 0 1 20.487997 9.903998 123.797981 123.797981 0 0 1 27.482996 21.292997 74.278988 74.278988 0 0 1 6.622999 7.737999 27.606996 27.606996 0 0 1 2.167 3.032999s-5.199999 0.928-13.617998 1.547c-4.146999 0.31-9.099999 0.433-14.669998 0.681s-11.636998 0-18.135997 0-13.432998-0.619-20.674997-1.114-14.731998-1.424-22.469997-2.351999l-11.697998-1.61-12.008998-1.919c-4.084999-0.68-7.736999-1.423-12.379998-2.041999l-6.189999-1.238a55.213991 55.213991 0 0 0-5.817999-0.743 434.779932 434.779932 0 0 0-91.548986 0l-32.124995 2.722999-9.222998 0.681z" fill="#FFEF57" /><path d="M450.93501 799.306035V788.040037c0-1.114 0.62-2.476 0.928999-3.837 0.743-2.724 1.547-6.189999 2.538-9.222998s2.29-6.189999 3.713999-9.779999a121.383981 121.383981 0 0 1 12.379998-22.221996 125.46998 125.46998 0 0 1 20.611997-22.407997l6.189999-5.322999 6.932999-4.827999a141.191978 141.191978 0 0 1 14.854998-8.975999 160.504975 160.504975 0 0 1 71.059989-17.825997h13.741998l5.013999 0.433c3.404999 0.371 6.932999 0.68 10.151998 1.114s6.189999 1.114 9.098999 1.733a159.266975 159.266975 0 0 1 34.167995 11.327998c5.322999 2.414 10.336998 5.446999 15.226997 8.169999s9.408999 6.189999 13.679998 9.656998a129.98798 129.98798 0 0 1 21.787997 21.911997c2.972 3.837999 5.447999 7.860999 7.799998 11.450998s3.960999 7.675999 5.632999 11.141998 2.847 7.056999 3.9 10.213999 1.547 6.189999 2.166 8.974998a60.103991 60.103991 0 0 1 1.484999 12.689998 34.663995 34.663995 0 0 1 0 4.455999 18.569997 18.569997 0 0 1-30.949995 13.183998l-1.423-1.236999-2.475999-2.105c-1.486-1.3-3.527999-3.342999-6.189999-5.509999s-6.189999-4.641999-9.841999-7.364999-8.479999-5.013999-13.307998-7.551999c-2.662-1.114-5.013999-2.476-7.922998-3.465999l-4.086-1.733-4.455999-1.548a142.924978 142.924978 0 0 0-19.002997-5.632999 182.973971 182.973971 0 0 0-20.859997-3.774999c-1.795 0-3.651999 0-5.385999-0.62h-16.279997a165.455974 165.455974 0 0 0-21.477997 1.424 195.786969 195.786969 0 0 0-20.612997 4.023999 159.637975 159.637975 0 0 0-18.569997 6.189999c-3.032 1.114-5.507999 2.785-8.479999 3.774999s-5.322999 2.662-7.859998 4.086c-4.704999 2.97-9.409999 5.694999-13.308998 8.603998-1.857 1.485-3.651999 2.909-5.508999 4.147l-4.21 3.342999c-0.68 0.495-1.36 0.99-1.918 1.485s-1.362 1.362-1.918999 1.98l-3.095 3.219999-2.599999 2.6a18.569997 18.569997 0 0 1-30.949996-13.246998z" fill="#943436" /><path d="M922.420936 433.296092l-6.869999-3.899999-7.861999-4.517999c-3.095-1.795-6.622999-4.270999-10.459998-6.684999s-8.109999-5.261999-12.379998-8.294999-8.665999-6.189999-12.999998-9.717999-9.036999-6.993999-13.430998-11.017998-9.099999-7.736999-13.369998-11.945998c-8.851999-8.170999-17.146997-16.898997-24.759996-25.254996s-14.112998-16.402997-19.498997-23.892996-9.902998-13.493998-12.997998-18.074997c-1.486-2.352-2.662-4.208999-3.529-5.447l-1.299999-2.227999a21.664997 21.664997 0 1 1 37.139994-22.407997 11.822998 11.822998 0 0 1 0.928 1.733v0.372l0.681 1.362c0.557 1.052 1.362 2.6 2.352999 4.641999 2.228 4.022999 5.508999 9.903998 9.902999 16.774997s9.718998 14.793998 15.784997 23.087997 12.998998 16.836997 20.364997 24.759996c3.589999 4.208999 7.426999 8.107999 11.202998 12.007998s7.613999 7.551999 11.327999 11.203998 7.551999 6.808999 11.079998 9.965999 6.931999 6.189999 10.150998 8.417998 6.189999 4.827999 8.727999 6.869999l7.489999 5.2 6.189999 4.579999a13.122998 13.122998 0 0 1-13.865998 22.407996zM248.030041 411.322096l6.189999-4.58 7.427999-5.199999c2.847-2.043 5.569999-4.394999 8.789999-6.869999s6.622999-5.199999 10.149998-8.419998 7.428999-6.188999 11.079998-9.964999 7.737999-7.179999 11.637999-11.079998 7.612999-7.799999 11.141998-12.007998c7.365999-8.169999 14.174998-16.836997 20.364997-24.759996s11.512998-16.155997 15.845997-23.087997 7.612999-12.750998 9.841999-16.774997l2.413999-4.641999 0.619-1.362v-0.31a21.664997 21.664997 0 0 1 39.119994 18.569997c0 0.62-0.619 1.238-0.99 1.857l-1.362 2.227999-3.527999 5.448c-3.033 4.579999-7.365999 10.893998-12.999998 18.073997s-12.378998 15.474998-19.806997 23.892996-15.907998 17.083997-24.759996 25.254996c-4.332999 4.209999-8.912999 8.108999-13.369998 11.946998s-9.098999 7.489999-13.431998 11.017998-8.727999 6.436999-12.998998 9.531999-8.231999 5.818999-12.379998 8.294999-7.426999 4.889999-10.459998 6.684999l-7.923999 4.517999-6.374999 3.713999a13.059998 13.059998 0 0 1-17.950997-4.827999 13.245998 13.245998 0 0 1 3.713999-17.145997z" fill="#F7B523" /><path d="M462.325008 504.852081a71.183989 71.183989 0 0 1-4.333 27.359996 71.554989 71.554989 0 0 1-16.589997 22.096996 69.512989 69.512989 0 0 1-22.839996 14.793998 70.812989 70.812989 0 0 1-26.616996 7.427999 72.297989 72.297989 0 0 1-26.987996-6.189999 70.316989 70.316989 0 0 1-22.220997-16.155998 75.392988 75.392988 0 0 1-21.849996-49.518992 71.307989 71.307989 0 0 1 5.445999-27.235996 70.316989 70.316989 0 0 1 16.155997-22.282996 66.72699 66.72699 0 0 1 49.519993-20.983997 69.264989 69.264989 0 0 1 26.739996 6.189999 71.431989 71.431989 0 0 1 23.769996 13.926998 71.554989 71.554989 0 0 1 13.616998 23.954996 69.883989 69.883989 0 0 1 6.189999 26.616996z m401.477937 0a71.183989 71.183989 0 0 1-4.332999 27.359996 71.554989 71.554989 0 0 1-16.589998 22.096996 69.512989 69.512989 0 0 1-22.839996 14.793998 70.812989 70.812989 0 0 1-26.616996 7.427999 72.297989 72.297989 0 0 1-26.987996-6.189999 70.316989 70.316989 0 0 1-22.344996-15.845998 75.392988 75.392988 0 0 1-21.849997-49.519992 71.307989 71.307989 0 0 1 5.446999-27.234996 70.316989 70.316989 0 0 1 16.154998-22.283996 66.72699 66.72699 0 0 1 49.519992-20.983997 69.264989 69.264989 0 0 1 26.739996 6.189999 71.431989 71.431989 0 0 1 24.016996 13.679998 71.554989 71.554989 0 0 1 13.617998 23.954996 69.883989 69.883989 0 0 1 6.065999 26.554996z" fill="#943436" /></svg>