<?xml version="1.0" standalone="no"?><!DOCTYPE svg PUBLIC "-//W3C//DTD SVG 1.1//EN" "http://www.w3.org/Graphics/SVG/1.1/DTD/svg11.dtd"><svg class="icon" width="200px" height="200.00px" viewBox="0 0 1024 1024" version="1.1" xmlns="http://www.w3.org/2000/svg"><path d="M817.621333 182.08c89.493333 60.032 182.272 336.170667 152.789334 545.728-30.549333 215.04-145.152 116.8-174.634667 87.317333-29.461333-29.461333-79.68-152.789333-109.141333-152.789333-15.274667 0-113.493333 21.824-174.634667 21.824-61.12 0-159.36-21.824-174.634667-21.824-29.461333 0-78.592 122.24-109.141333 152.789333-30.570667 30.570667-144.085333 127.701333-174.634667-87.317333C24.106667 518.250667 116.885333 242.133333 206.378667 182.08 295.893333 122.026667 388.693333 167.893333 435.626667 214.826667c11.989333 12.010667 42.56 30.549333 76.394666 32.746666 33.834667-3.285333 64.405333-20.736 76.394667-32.746666 46.933333-46.933333 139.733333-91.690667 229.226667-32.746667zM381.013333 444.032v-65.493333h-65.493333v-65.493334h-65.493333v65.493334H184.576v65.493333h65.493333v65.493333h65.493334v-65.493333h65.493333z m360.192-130.986667c-18.56 0-32.746667 14.208-32.746666 32.746667 0 18.56 14.186667 32.746667 32.746666 32.746667 18.56 0 32.746667-14.186667 32.746667-32.746667 0-18.56-14.186667-32.746667-32.746667-32.746667z m-65.493333 130.986667c18.56 0 32.746667-14.186667 32.746667-32.746667 0-18.56-14.186667-32.746667-32.746667-32.746666-18.56 0-32.725333 14.186667-32.725333 32.746666 0 18.56 14.186667 32.746667 32.725333 32.746667z m65.493333 65.493333c18.56 0 32.746667-14.186667 32.746667-32.746666 0-18.56-14.186667-32.746667-32.746667-32.746667-18.56 0-32.746667 14.186667-32.746666 32.746667 0 18.56 14.186667 32.746667 32.746666 32.746666z m65.493334-65.493333c18.56 0 32.746667-14.186667 32.746666-32.746667 0-18.56-14.186667-32.746667-32.746666-32.746666-18.56 0-32.746667 14.186667-32.746667 32.746666 0 18.56 14.186667 32.746667 32.746667 32.746667z" fill="#1E90FF" /><path d="M904.789333 859.733333c-42.56 15.893333-91.242667-26.837333-109.013333-44.586666-29.461333-29.482667-79.68-152.810667-109.141333-152.810667-15.274667 0-113.493333 21.824-174.634667 21.824-61.12 0-159.36-21.824-174.634667-21.824-29.461333 0-78.592 122.24-109.141333 152.789333-30.570667 30.570667-144.085333 127.701333-174.634667-87.317333-16.896-120.042667 6.357333-261.973333 46.101334-372.565333 13.504-18.517333 27.392-32.917333 41.216-42.197334 89.493333-60.032 182.272-14.186667 229.205333 32.746667 12.010667 12.010667 42.56 30.570667 76.394667 32.746667 33.834667-3.264 64.405333-20.736 76.416-32.746667 46.933333-46.933333 139.690667-91.669333 229.205333-32.746667 2.218667 1.493333 4.48 3.136 6.698667 4.906667a33.28 33.28 0 0 0-17.621334-4.906667c-18.56 0-32.746667 14.208-32.746666 32.746667 0 18.56 14.186667 32.746667 32.746666 32.746667 18.56 0 32.746667-14.186667 32.746667-32.746667 0-8.448-2.944-16-7.893333-21.696 14.528 13.269333 28.970667 31.829333 42.794666 54.506667a32.149333 32.149333 0 0 0-34.901333 32.682666c0 18.56 14.186667 32.746667 32.746667 32.746667a32.213333 32.213333 0 0 0 28.373333-15.978667c53.461333 115.2 89.877333 288.341333 69.866667 430.72l-0.149334 0.938667zM381.013333 444.010667v-65.493334h-65.493333v-65.493333h-65.493333v65.493333H184.576v65.493334h65.493333v65.493333h65.493334v-65.493333h65.493333z m294.698667 0c18.56 0 32.746667-14.186667 32.746667-32.746667 0-18.56-14.186667-32.746667-32.746667-32.746667-18.56 0-32.725333 14.186667-32.725333 32.746667 0 18.56 14.186667 32.746667 32.725333 32.746667z m65.493333 65.493333c18.56 0 32.746667-14.186667 32.746667-32.746667 0-18.56-14.186667-32.746667-32.746667-32.746666-18.56 0-32.746667 14.186667-32.746666 32.746666 0 18.56 14.186667 32.746667 32.746666 32.746667z" fill="#56ABFF" /></svg>