<?xml version="1.0" standalone="no"?><!DOCTYPE svg PUBLIC "-//W3C//DTD SVG 1.1//EN" "http://www.w3.org/Graphics/SVG/1.1/DTD/svg11.dtd"><svg class="icon" width="200px" height="200.00px" viewBox="0 0 1024 1024" version="1.1" xmlns="http://www.w3.org/2000/svg"><path d="M606.1056 203.02506667c-118.784 0-214.528 96.256-214.528 215.04 0 28.4672 23.04 51.0976 51.0976 51.0976 27.9552 0 51.0976-23.04 51.0976-51.0976 0-62.3616 50.5856-112.4352 112.4352-112.4352 62.3616 0 112.4352 50.0736 112.4352 112.4352 0 28.4672 23.04 51.0976 51.0976 51.0976 27.9552 0 51.0976-23.04 51.0976-51.0976 0.3072-118.8864-95.8464-215.04-214.7328-215.04z" fill="#F3EAD5" /><path d="M606.1056 50.85866667c-209.1008 0-378.4704 169.3696-378.4704 378.4704 0 28.4672 23.04 51.0976 51.0976 51.0976 28.4672 0 51.0976-23.04 51.0976-51.0976 0-152.6784 123.6992-275.8656 275.8656-275.8656 152.1664 0 275.8656 123.6992 275.8656 275.8656 0 28.4672 23.04 51.0976 51.0976 51.0976 28.4672 0 51.0976-23.04 51.0976-51.0976 0.9216-209.1008-168.448-378.4704-377.6512-378.4704z" fill="#F9CD6C" /><path d="M776.704 684.50986667c-18.8416 0-34.2016-15.36-34.2016-34.2016v-100.9664c0-18.8416 15.36-34.2016 34.2016-34.2016s34.2016 15.36 34.2016 34.2016V650.41066667c0 18.7392-15.36 34.0992-34.2016 34.0992z" fill="#71DFFB" /><path d="M885.8624 590.30186667H654.7456V387.14026667c0-26.8288-21.2992-48.128-47.7184-48.128s-47.7184 21.8112-47.7184 48.128v203.1616H114.3808C71.68 590.30186667 35.84 624.70826667 35.84 667.30666667v211.6608h0.7168c0 41.5744 34.7136 76.3904 77.312 76.3904h771.9936c42.5984 0 76.5952-33.28 76.5952-75.8784V667.30666667c0-42.5984-33.9968-77.0048-76.5952-77.0048zM181.0432 821.52106667c-26.4192 0-48.128-21.2992-48.128-48.128s21.8112-48.128 48.128-48.128c26.4192 0 48.128 21.8112 48.128 48.128s-21.8112 48.128-48.128 48.128z m173.6704 0c-26.4192 0-48.128-21.2992-48.128-48.128s21.8112-48.128 48.128-48.128c26.4192 0 48.128 21.8112 48.128 48.128s-21.8112 48.128-48.128 48.128z" fill="#AEE155" /></svg>