<?xml version="1.0" standalone="no"?><!DOCTYPE svg PUBLIC "-//W3C//DTD SVG 1.1//EN" "http://www.w3.org/Graphics/SVG/1.1/DTD/svg11.dtd"><svg class="icon" width="200px" height="200.00px" viewBox="0 0 1024 1024" version="1.1" xmlns="http://www.w3.org/2000/svg"><path d="M512 512m-414 0a414 414 0 1 0 828 0 414 414 0 1 0-828 0Z" fill="#F0C48A" /><path d="M984.4 71c-3 0-6-1.2-8.2-3.4-58.8-58.8-154.4-58.8-213.4 0-4.6 4.6-12 4.6-16.6 0-4.6-4.6-4.6-12 0-16.6 68-68 178.6-68 246.4 0 4.6 4.6 4.6 12 0 16.6-2.2 2.2-5.2 3.4-8.2 3.4z" fill="#4C4372" /><path d="M948 107.4c-3 0-6-1.2-8.2-3.4-38.8-38.8-101.6-38.8-140.4 0-4.6 4.6-12 4.6-16.6 0s-4.6-12 0-16.6c47.8-47.8 125.6-47.8 173.6 0 4.6 4.6 4.6 12 0 16.6-2.4 2.4-5.4 3.4-8.4 3.4z" fill="#4C4372" /><path d="M910 145.4c-3 0-6-1.2-8.2-3.4-17.8-17.8-46.6-17.8-64.2 0-4.6 4.6-12 4.6-16.6 0-4.6-4.6-4.6-12 0-16.6 26.8-26.8 70.6-26.8 97.4 0 4.6 4.6 4.6 12 0 16.6-2.4 2.4-5.4 3.4-8.4 3.4z" fill="#4C4372" /><path d="M869.6 174.2m-23.6 0a23.6 23.6 0 1 0 47.2 0 23.6 23.6 0 1 0-47.2 0Z" fill="#4C4372" /><path d="M905 897.6h-786c-43.8 0-79.4-35.6-79.4-79.4V327.4c0-43.8 35.6-79.4 79.4-79.4h786c43.8 0 79.4 35.6 79.4 79.4V818c0 44-35.6 79.6-79.4 79.6z" fill="#D3E6F8" /><path d="M902.8 248c45 0 81.6 36.6 81.6 81.6v494.2c0 40.6-33 73.6-73.6 73.6h-7.8V248z" fill="#A4CFF2" /><path d="M905 909.2h-786c-50.2 0-91.2-41-91.2-91.2V327.4c0-50.2 41-91.2 91.2-91.2h786c50.2 0 91.2 41 91.2 91.2V818c0 50.4-41 91.2-91.2 91.2z m-786-649.4c-37.4 0-67.8 30.4-67.8 67.8V818c0 37.4 30.4 67.8 67.8 67.8h786c37.4 0 67.8-30.4 67.8-67.8V327.4c0-37.4-30.4-67.8-67.8-67.8h-786z" fill="#4C4372" /><path d="M866.6 848.6H157.4c-37.2 0-67.4-30.2-67.4-67.4V364.6c0-37.2 30.2-67.4 67.4-67.4h709.2c37.2 0 67.4 30.2 67.4 67.4v416.6c0 37.2-30.2 67.4-67.4 67.4z" fill="#FFFFFF" /><path d="M180.6 426.4h116v116h-116zM362.8 426.4h116v116h-116zM545.2 426.4h116v116h-116zM727.6 426.4h116v116h-116zM180.6 603.2h116v116h-116zM362.8 603.2h116v116h-116zM545.2 603.2h116v116h-116zM727.6 603.2h116v116h-116z" fill="#FD919E" /><path d="M648.4 897.6H375.6l-114.6 114.6H344l56-56h224l56 56h83z" fill="#7BABF1" /><path d="M763 1024H680c-3.2 0-6-1.2-8.2-3.4L619.2 968H404.8l-52.6 52.6c-2.2 2.2-5.2 3.4-8.2 3.4h-83c-4.8 0-9-2.8-10.8-7.2-1.8-4.4-0.8-9.4 2.6-12.8l114.8-114.8c2.2-2.2 5.2-3.4 8.2-3.4h272.6c3.2 0 6 1.2 8.2 3.4l114.8 114.8c3.4 3.4 4.4 8.4 2.6 12.8-2 4.4-6.2 7.2-11 7.2z m-78-23.4h49.8l-91.2-91.2H380.6l-91.2 91.2h49.8l52.6-52.6c2.2-2.2 5.2-3.4 8.2-3.4h224c3.2 0 6 1.2 8.2 3.4l52.8 52.6z" fill="#4C4372" /><path d="M873.8 848.6c32 0 58-26 58-58V355c0-32-26-58-58-58v551.6z" fill="#D3E6F8" /><path d="M866.6 860.2H157.4c-43.6 0-79.2-35.6-79.2-79.2V364.6c0-43.6 35.6-79.2 79.2-79.2h709.2c43.6 0 79.2 35.6 79.2 79.2v416.6c0 43.6-35.6 79-79.2 79zM157.4 308.8c-30.8 0-55.8 25-55.8 55.8v416.6c0 30.8 25 55.8 55.8 55.8h709.2c30.8 0 55.8-25 55.8-55.8V364.6c0-30.8-25-55.8-55.8-55.8H157.4z" fill="#4C4372" /><path d="M258.4 426.4h38v116h-38zM258.4 603.2h38v116h-38z" fill="#E8677D" /><path d="M440.8 426.4h38v116h-38z" fill="#E8677D" /><path d="M440.8 603.2h38v116h-38z" fill="#E8677D" /><path d="M623 426.4h38v116h-38z" fill="#E8677D" /><path d="M623 603.2h38v116h-38z" fill="#E8677D" /><path d="M805.4 426.4h38v116h-38z" fill="#E8677D" /><path d="M805.4 603.2h38v116h-38z" fill="#E8677D" /><path d="M296.4 554h-116c-6.4 0-11.8-5.2-11.8-11.8v-116c0-6.4 5.2-11.8 11.8-11.8h116c6.4 0 11.8 5.2 11.8 11.8v116c0 6.6-5.2 11.8-11.8 11.8z m-104.2-23.4h92.4V438H192.2v92.6zM478.8 554h-116c-6.4 0-11.8-5.2-11.8-11.8v-116c0-6.4 5.2-11.8 11.8-11.8h116c6.4 0 11.8 5.2 11.8 11.8v116c0 6.6-5.4 11.8-11.8 11.8z m-104.2-23.4h92.4V438h-92.4v92.6zM661.2 554h-116c-6.4 0-11.8-5.2-11.8-11.8v-116c0-6.4 5.2-11.8 11.8-11.8h116c6.4 0 11.8 5.2 11.8 11.8v116c-0.2 6.6-5.4 11.8-11.8 11.8z m-104.2-23.4h92.4V438h-92.4v92.6zM843.4 554h-116c-6.4 0-11.8-5.2-11.8-11.8v-116c0-6.4 5.2-11.8 11.8-11.8h116c6.4 0 11.8 5.2 11.8 11.8v116c0 6.6-5.2 11.8-11.8 11.8z m-104.2-23.4h92.4V438h-92.4v92.6z" fill="#4C4372" /><path d="M296.4 731h-116c-6.4 0-11.8-5.2-11.8-11.8v-116c0-6.4 5.2-11.8 11.8-11.8h116c6.4 0 11.8 5.2 11.8 11.8v116c0 6.4-5.2 11.8-11.8 11.8z m-104.2-23.6h92.4v-92.4H192.2v92.4zM478.8 731h-116c-6.4 0-11.8-5.2-11.8-11.8v-116c0-6.4 5.2-11.8 11.8-11.8h116c6.4 0 11.8 5.2 11.8 11.8v116c0 6.4-5.4 11.8-11.8 11.8z m-104.2-23.6h92.4v-92.4h-92.4v92.4zM661.2 731h-116c-6.4 0-11.8-5.2-11.8-11.8v-116c0-6.4 5.2-11.8 11.8-11.8h116c6.4 0 11.8 5.2 11.8 11.8v116c-0.2 6.4-5.4 11.8-11.8 11.8z m-104.2-23.6h92.4v-92.4h-92.4v92.4zM843.4 731h-116c-6.4 0-11.8-5.2-11.8-11.8v-116c0-6.4 5.2-11.8 11.8-11.8h116c6.4 0 11.8 5.2 11.8 11.8v116c0 6.4-5.2 11.8-11.8 11.8z m-104.2-23.6h92.4v-92.4h-92.4v92.4z" fill="#4C4372" /></svg>