<?xml version="1.0" standalone="no"?><!DOCTYPE svg PUBLIC "-//W3C//DTD SVG 1.1//EN" "http://www.w3.org/Graphics/SVG/1.1/DTD/svg11.dtd"><svg class="icon" width="64px" height="64.00px" viewBox="0 0 1024 1024" version="1.1" xmlns="http://www.w3.org/2000/svg"><path d="M512 512m-512 0a512 512 0 1 0 1024 0 512 512 0 1 0-1024 0Z" fill="#FFDA6A" /><path d="M206.0288 304.810667a22.766933 22.766933 0 1 1 20.343467-40.686934l125.166933 62.5664a22.766933 22.766933 0 0 1 0 40.686934L226.372267 429.9776a22.766933 22.766933 0 1 1-20.343467-40.721067l125.1328-62.5664v40.686934L206.062933 304.810667z m602.999467-40.686934a22.766933 22.766933 0 0 1 20.3776 40.686934l-125.166934 62.5664V326.690133l125.166934 62.5664a22.766933 22.766933 0 0 1-20.3776 40.721067l-125.1328-62.600533a22.766933 22.766933 0 0 1 0-40.686934l125.1328-62.5664z" fill="#000000" /><path d="M159.300267 523.400533h712.430933C851.933867 702.600533 699.972267 841.966933 515.515733 841.966933S179.0976 702.600533 159.300267 523.400533z" fill="#000000" /><path d="M818.551467 675.0208A358.126933 358.126933 0 0 1 515.515733 841.966933c-126.839467 0-238.318933-65.877333-302.011733-165.341866 78.779733-38.5024 186.026667-62.225067 304.196267-62.225067 116.497067 0 222.378667 23.04 300.8512 60.6208z" fill="#F55065" /></svg>