<?xml version="1.0" standalone="no"?><!DOCTYPE svg PUBLIC "-//W3C//DTD SVG 1.1//EN" "http://www.w3.org/Graphics/SVG/1.1/DTD/svg11.dtd"><svg t="1603160875763" class="icon" viewBox="0 0 1024 1024" version="1.1" xmlns="http://www.w3.org/2000/svg" p-id="3612" xmlns:xlink="http://www.w3.org/1999/xlink" width="16" height="16"><defs><style type="text/css"></style></defs><path d="M1023.573333 546.844444a140.231111 140.231111 0 0 1-17.92 57.144889 124.359111 124.359111 0 0 1-99.555555 59.420445h-256.910222l2.389333 9.073778a499.427556 499.427556 0 0 1 24.433778 153.6 450.332444 450.332444 0 0 1-7.537778 86.869333l-2.844445 14.677333a127.232 127.232 0 0 1-41.927111 69.205334 114.289778 114.289778 0 0 1-74.097777 26.965333h-0.796445a115.342222 115.342222 0 0 1-83.825778-36.636445 125.980444 125.980444 0 0 1-34.474666-87.808 42.183111 42.183111 0 0 1 0.568889-6.912 36.380444 36.380444 0 0 0 0.341333-4.664888v-0.853334a272.042667 272.042667 0 0 0-231.793778-267.150222l-7.879111-1.080889v-0.824889h-155.875556a35.470222 35.470222 0 0 1-25.6-11.576889 38.599111 38.599111 0 0 1-10.183111-26.851555V36.977778A37.176889 37.176889 0 0 1 36.295111 0h181.674667v0.938667h603.704889a120.604444 120.604444 0 0 1 58.823111 19.712h0.227555a127.573333 127.573333 0 0 1 38.940445 41.642666 183.381333 183.381333 0 0 1 17.351111 55.239111l0.341333 1.792c3.100444 15.388444 6.4 30.663111 9.699556 45.511112 2.645333 12.060444 5.376 24.462222 7.879111 36.522666l22.158222 104.277334c3.669333 17.066667 7.424 34.133333 11.064889 51.2s7.452444 34.360889 11.093333 51.427555c2.844444 12.999111 5.688889 25.998222 8.334223 38.656s5.489778 25.6 8.334222 38.542222l0.455111 1.792a180.138667 180.138667 0 0 1 7.196444 59.420445zM865.080889 139.946667c-0.796444-3.441778-1.479111-6.912-2.161778-10.353778a89.059556 89.059556 0 0 0-11.889778-35.214222 49.749333 49.749333 0 0 0-45.681777-17.664H245.589333v474.168889l5.262223 1.308444a349.610667 349.610667 0 0 1 237.511111 232.334222l2.844444 8.96v0.227556c0.568889 2.275556 1.251556 4.522667 1.820445 6.798222 2.161778 8.220444 4.209778 15.872 5.688888 23.864889a370.915556 370.915556 0 0 1 5.688889 70.286222v11.093333l0.796445 3.100445a46.336 46.336 0 0 0 43.975111 36.522667 22.215111 22.215111 0 0 0 3.072 0h0.711111a47.644444 47.644444 0 0 0 46.449778-47.587556v-1.678222a443.733333 443.733333 0 0 0 6.286222-71.850667 328.931556 328.931556 0 0 0-5.944889-72.277333l-2.048-5.262222v-0.824889a403.484444 403.484444 0 0 0-30.72-93.44l-5.461333-11.576889a38.172444 38.172444 0 0 1-3.783111-16.810667v-1.194667a37.262222 37.262222 0 0 1 36.209777-37.233777h303.160889a48.668444 48.668444 0 0 0 44.771556-23.381334 52.821333 52.821333 0 0 0 5.347555-15.047111v-1.052444l0.312889-0.967111a19.911111 19.911111 0 0 0 1.28-6.428445v-0.739555a66.104889 66.104889 0 0 0-2.531555-19.313778l-1.024-4.664889c-0.910222-4.408889-1.820444-8.931556-2.844445-13.596444s-1.820444-9.073778-2.844444-13.482667c-1.820444-9.073778-3.868444-18.375111-5.916445-27.335111s-4.238222-18.488889-6.058666-27.676445l-22.158222-104.391111c-3.754667-17.550222-7.765333-35.669333-11.633778-53.219555s-7.765333-34.958222-11.377778-52.138667a2079.573333 2079.573333 0 0 0-9.699556-45.511111c-2.844444-12.032-5.688889-24.462222-8.106666-36.636445zM172.970667 542.179556V77.795556h-99.555556v463.644444z m0 0" p-id="3613" fill="#ffffff"></path></svg>