<?xml version="1.0" standalone="no"?><!DOCTYPE svg PUBLIC "-//W3C//DTD SVG 1.1//EN" "http://www.w3.org/Graphics/SVG/1.1/DTD/svg11.dtd"><svg class="icon" width="64px" height="64.00px" viewBox="0 0 1024 1024" version="1.1" xmlns="http://www.w3.org/2000/svg"><path d="M512 1024c-281.6 0-512-230.4-512-512s230.4-512 512-512 512 230.4 512 512-230.4 512-512 512zM512 42.666667C256 42.666667 42.666667 256 42.666667 512S256 981.333333 512 981.333333 981.333333 768 981.333333 512 768 42.666667 512 42.666667z" fill="#535353" /><path d="M512 256c145.066667 0 256 110.933333 256 256S657.066667 768 512 768 256 657.066667 256 512s110.933333-256 256-256z" fill="#535353" /></svg>